<svg width="1029" height="790" viewBox="0 0 1029 790" fill="none" xmlns="http://www.w3.org/2000/svg">
<path d="M589.233 0H651.504C962.717 0 1215 252.288 1215 563.5C1215 874.713 962.717 1127 651.504 1127H589.233C278.021 1127 25.7332 874.713 25.7332 563.5C25.7332 252.288 278.021 0 589.233 0Z" fill="url(#paint0_linear_32_227)"/>
<mask id="mask0_32_227" style="mask-type:luminance" maskUnits="userSpaceOnUse" x="913" y="462" width="116" height="151">
<path d="M913 462H1028.79V612.655H913V462Z" fill="white"/>
</mask>
<g mask="url(#mask0_32_227)">
<path d="M976.872 616.309C976.739 611.848 975.627 572.597 976.75 567.309C977.781 562.154 984.824 518.432 984.926 517.983L988.948 518.626C988.652 520.433 981.864 562.858 980.782 568.095C980.006 571.78 980.486 598.873 980.986 616.197L976.872 616.309Z" fill="#694D42"/>
<path d="M979.823 565.676L978.496 564.655C979.088 563.889 993.002 545.974 996.228 542.911C998.389 540.673 1000.29 538.197 1001.89 535.531C1002.31 534.877 1002.65 534.357 1002.91 534.04C1003.44 533.234 1005.49 525.424 1007.15 518.34L1008.77 518.718C1007.96 522.229 1005.2 533.765 1004.25 535.051C1004.05 535.327 1003.72 535.817 1003.32 536.449C1001.65 539.229 999.662 541.808 997.402 544.136C994.298 547.097 980.017 565.492 979.823 565.676Z" fill="#694D42"/>
<path d="M997.688 543.636L996.034 543.391C996.299 541.595 996.738 536.429 995.605 534.112C994.013 530.845 996.626 521.862 996.953 520.841L998.555 521.321C998.555 521.321 997.831 523.73 997.31 526.425C996.432 531.029 996.81 532.754 997.106 533.377C998.709 536.633 997.729 543.361 997.688 543.636Z" fill="#694D42"/>
<path d="M979.19 556.029C979.19 555.856 975.372 538.624 973.3 534.326C972.279 532.284 972.626 528.395 974.198 522.709C975.331 518.575 976.75 514.941 976.771 514.91L978.322 515.522C976.801 519.412 973.218 530.243 974.811 533.601C976.964 538.073 980.67 554.957 980.823 555.672L979.19 556.029Z" fill="#694D42"/>
<path d="M919.267 518.82C921.992 509.397 929.536 513.032 929.536 513.032C932.936 507.703 934.222 513.532 934.222 513.532C935.998 505.794 944.43 510.388 944.43 510.388C949.749 500.608 960.764 507.427 960.764 507.427C959.743 501.047 965.582 501.996 965.582 501.996C966.164 495.279 972.728 497.821 972.728 497.821C979.19 480.743 994.043 499.556 994.043 499.556C1006.7 496.964 1008.62 502.619 1009.49 506.468C1025.45 505.049 1026.59 509.469 1026.11 511.847C1035.41 514.175 1041.81 519.647 1037.83 530.865C1035.1 539.308 1027.56 536.051 1027.56 536.051C1024.16 540.829 1022.87 535.602 1022.87 535.602C1021.09 542.544 1012.66 538.42 1012.66 538.42C1007.34 547.189 996.329 541.074 996.329 541.074C997.35 546.801 991.511 545.943 991.511 545.943C990.929 551.966 984.365 549.69 984.365 549.69C977.903 565.002 963.05 548.138 963.05 548.138C950.392 550.455 948.473 545.351 947.605 541.931C938.693 542.646 934.416 541.727 932.446 540.4C922.38 538.042 915.081 531.968 919.267 518.82Z" fill="#5E8F4D"/>
</g>
<path d="M197.456 656.611C197.269 650.45 195.729 582.121 197.281 574.735C198.774 567.617 208.448 507.138 208.553 506.532L214.107 507.419C213.699 509.916 204.305 568.632 202.788 575.89C201.715 580.989 202.368 632.492 203.08 656.401L197.456 656.611Z" fill="#694D42"/>
<path d="M201.598 572.541L199.766 571.117C200.583 570.067 219.848 545.271 224.27 541.024C227.262 537.931 229.889 534.505 232.1 530.814C232.683 529.915 233.15 529.192 233.476 528.749C234.223 527.582 237.047 516.823 239.311 507.022L241.563 507.547C240.396 512.401 236.615 528.375 235.297 530.137C235.017 530.522 234.573 531.199 234.013 532.074C231.707 535.919 228.967 539.486 225.845 542.704C221.563 546.823 201.796 572.284 201.598 572.541Z" fill="#694D42"/>
<path d="M226.253 542.039L223.919 541.701C224.281 539.216 224.9 532.063 223.324 528.866C221.119 524.338 224.759 511.888 225.191 510.487L227.408 511.153C227.408 511.153 226.416 514.478 225.693 518.224C224.468 524.595 224.993 526.987 225.413 527.839C227.665 532.354 226.311 541.643 226.253 542.039Z" fill="#694D42"/>
<path d="M200.653 559.146C200.653 558.901 195.367 535.05 192.485 529.111C191.131 526.31 191.552 520.943 193.722 513.02C195.297 507.314 197.223 502.284 197.281 502.226L199.44 503.078C197.328 508.457 192.333 523.451 194.574 528.107C197.549 534.28 202.742 557.652 202.894 558.644L200.653 559.146Z" fill="#694D42"/>
<path d="M120.313 494.186C124.082 481.164 134.525 486.182 134.525 486.182C139.193 478.807 141.013 486.87 141.013 486.87C143.475 476.158 155.086 482.529 155.086 482.529C162.437 468.982 177.688 478.434 177.688 478.434C176.299 469.6 184.35 470.919 184.35 470.919C185.167 461.584 194.281 465.085 194.281 465.085C203.23 441.444 223.779 467.488 223.779 467.488C241.282 463.906 243.954 471.782 245.156 477.057C267.256 475.085 268.82 481.211 268.166 484.501C281.002 487.722 289.905 495.295 284.397 510.814C280.628 522.483 270.185 518.002 270.185 518.002C265.518 524.606 263.697 517.384 263.697 517.384C261.235 526.975 249.625 521.269 249.625 521.269C242.262 533.416 227.023 524.945 227.023 524.945C228.4 532.868 220.36 531.689 220.36 531.689C219.543 540.032 210.43 536.87 210.43 536.87C201.468 558.072 180.932 534.711 180.932 534.711C163.429 537.932 160.745 530.872 159.543 526.135C147.209 527.127 141.282 525.843 138.539 524.011C124.619 520.791 114.514 512.389 120.313 494.186Z" fill="#5E8F4D"/>
<path d="M264.001 664.424C263.85 659.324 262.578 614.458 263.85 608.356C265.087 602.521 273.08 552.533 273.185 552.031L277.77 552.766C277.444 554.832 269.684 603.327 268.435 609.313C267.549 613.525 268.097 644.494 268.681 664.284L264.001 664.424Z" fill="#694D42"/>
<path d="M267.421 606.547L265.916 605.38C266.581 604.505 282.497 584.027 286.184 580.526C288.652 577.965 290.824 575.135 292.66 572.09C293.139 571.343 293.512 570.748 293.827 570.386C294.446 569.464 296.779 560.526 298.67 552.44L300.537 552.871C299.591 556.885 296.453 570.071 295.356 571.541C295.122 571.856 294.761 572.416 294.306 573.14C292.389 576.315 290.118 579.262 287.538 581.926C283.909 585.31 267.584 606.337 267.421 606.547Z" fill="#694D42"/>
<path d="M287.759 581.355L285.869 581.074C286.172 579.021 286.685 573.116 285.39 570.468C283.558 566.734 286.557 556.465 286.919 555.298L288.751 555.847C288.751 555.847 287.934 558.601 287.339 561.681C286.324 566.932 286.756 568.916 287.106 569.628C288.926 573.361 287.829 581.051 287.759 581.355Z" fill="#694D42"/>
<path d="M266.65 595.485C266.65 595.287 262.274 575.578 259.917 570.678C258.75 568.344 259.147 563.898 260.932 557.399C262.228 552.673 263.861 548.519 263.873 548.484L265.658 549.184C263.908 553.63 259.824 566.01 261.632 569.849C264.094 574.948 268.33 594.26 268.517 595.077L266.65 595.485Z" fill="#694D42"/>
<path d="M198.144 553.046C201.26 542.276 209.894 546.43 209.894 546.43C213.78 540.339 215.239 547.002 215.239 547.002C217.281 538.157 226.907 543.408 226.907 543.408C232.987 532.229 245.577 540.024 245.577 540.024C244.41 532.731 251.085 533.816 251.085 533.816C251.761 526.138 259.253 529.044 259.253 529.044C266.651 509.511 283.617 531.028 283.617 531.028C298.098 528.064 300.28 534.528 301.271 538.927C319.521 537.305 320.816 542.358 320.28 545.077C330.91 547.749 338.238 553.991 333.687 566.815C330.571 576.465 321.937 572.743 321.937 572.743C318.051 578.204 316.592 572.23 316.592 572.23C314.55 580.164 304.924 575.45 304.924 575.45C298.856 585.473 286.254 578.484 286.254 578.484C287.421 585.018 280.746 584.05 280.746 584.05C280.07 590.934 272.578 588.332 272.578 588.332C265.18 605.835 248.214 586.547 248.214 586.547C233.733 589.207 231.551 583.373 230.559 579.464C220.373 580.281 215.472 579.231 213.22 577.714C201.703 574.948 193.36 568.017 198.144 553.046Z" fill="#5E8F4D"/>
<path d="M5.00018 788C94.7814 548.952 940.773 580.726 1030 613.444V788L5.00018 788Z" fill="#9AB200"/>
<path d="M20.6293 757.458C20.6293 757.458 181.264 771.898 244 773.884C244 773.884 425.628 769.723 599.751 773.625C599.751 773.625 394.179 788.351 333.087 794.551L401.63 797.542L20.6293 868.818V800.751L377.699 777.052L20.6293 780.342V757.458Z" fill="#809100"/>
<path d="M1025.13 711.906C1025.13 711.906 533.884 722.131 279.784 726.605L922.322 733.145L637.072 753.187L1025.13 762.066V711.906Z" fill="#809100"/>
<g style="mix-blend-mode:multiply" opacity="0.23">
<path d="M272 635.986C272 629.922 424.028 625 611.557 625C799.086 625 951.127 629.922 951.127 635.986C951.127 642.051 799.1 646.973 611.557 646.973H609.014C622.978 648.822 631.286 651.12 631.286 653.608C631.286 659.686 582.092 664.594 521.423 664.594C460.753 664.594 411.559 659.686 411.559 653.608C411.559 650.44 424.939 647.598 446.327 645.586C342.337 643.709 272 640.12 272 635.986Z" fill="#42323D"/>
</g>
<path d="M1022.34 730.071C1022.34 730.071 1041.77 619.821 1027.9 626.273C1014.02 632.724 1014.01 723.619 1014.01 723.619C1014.01 723.619 994.729 629.008 981.724 638.288C968.718 647.567 1007.31 732.664 1007.31 732.664C1007.31 732.664 948.455 678.764 944.208 691.361C939.961 703.958 1002.29 740.106 1002.29 740.106H1025.42C1025.42 740.106 1049.52 669.566 1049.92 660.225C1050.31 650.885 1034.99 675.865 1022.34 730.071Z" fill="#4A6B3E"/>
<path d="M426.862 730.283C426.862 730.283 446.513 649.372 432.589 655.762C418.665 662.152 418.491 723.79 418.491 723.79C418.491 723.79 400.228 630.895 386.202 638.459C377.607 643.104 411.723 732.835 411.723 732.835C411.723 732.835 377.157 691.236 377.933 704.517C378.301 710.765 406.711 740.246 406.711 740.246H429.924C429.924 740.246 450.953 705.854 451.362 696.514C451.77 687.173 449.085 685.223 426.862 730.283Z" fill="#4A6B3E"/>
<path d="M24.8668 757.463C28.2782 757.251 21.652 756.573 24.8668 757.463C38.6487 749.76 40.7889 750.895 40.7889 750.895C49.1207 739.206 78.8594 747.579 78.8594 747.579C100.742 733.284 139.642 745.519 139.642 745.519C137.494 735.519 158.67 737.877 158.67 737.877C162.421 727.578 186.058 732.522 186.058 732.522C213.907 707.134 243.836 720.533 243.836 720.533C250.972 715.559 259.725 717.444 266.167 720.183C266.167 720.183 315.206 709.678 315.179 727.31C315.179 727.31 345.557 727.444 332.536 737.084C332.536 737.084 357.164 738.68 367.684 744.695C374.137 744.994 380.503 745.968 386.604 747.589C408.487 733.294 447.386 745.529 447.386 745.529C445.239 735.529 466.415 737.887 466.415 737.887C470.166 727.588 493.802 732.532 493.802 732.532C521.638 707.145 551.567 720.544 551.567 720.544C558.703 715.569 567.469 717.454 573.912 720.194C573.912 720.194 622.951 709.688 622.91 727.32C622.91 727.32 653.301 727.454 640.28 737.094C640.28 737.094 680.838 739.721 680.104 750.957C683.141 749.574 686.543 748.718 690.068 748.449C693.593 748.18 697.152 748.506 700.492 749.402C714.274 741.698 717.604 750.885 717.604 750.885C725.99 739.206 755.769 747.599 755.769 747.599C777.638 733.304 816.538 745.54 816.538 745.54C814.391 735.539 835.566 737.898 835.566 737.898C839.331 727.599 862.954 732.542 862.954 732.542C890.803 707.155 920.732 720.554 920.732 720.554C927.868 715.58 936.621 717.464 943.064 720.204C943.064 720.204 992.103 709.699 992.075 727.331C992.075 727.331 1022.45 727.465 1009.45 737.105C1017.42 737.674 1025.31 738.819 1033 740.524V765.757L1032.27 766.138H1033V785.871C1031.99 786.139 1031 786.365 1030.02 786.571C1031.03 786.849 1032.04 787.127 1033 787.426V796.283C1020.48 796.911 1015.67 793.008 1015.67 793.008L962.473 793.78C962.473 793.78 965.49 800.454 962.255 800.64C959.877 800.784 955.881 797.55 954.807 795.902C952.931 797.622 945.972 801.052 941.84 799.26C938.524 797.807 941.609 795.923 943.811 794.965C939.557 796.046 928.86 797.632 924.076 796.572C918.639 795.356 920.107 794.398 920.107 794.398L797.265 796.19C797.265 796.19 804.863 799.981 797.496 800.084C790.129 800.187 790.619 797.189 790.619 797.189C790.619 797.189 787.71 802.411 784.23 800.629C780.751 798.848 784.597 796.376 784.597 796.376L749.259 796.901L710.658 797.457C710.658 797.457 683.325 798.199 673.961 791.927C675.809 793.461 675.32 794.821 670.658 795.552C652.921 798.353 646.383 793.008 646.383 793.008L593.185 793.78C593.185 793.78 596.202 800.454 592.981 800.64C590.602 800.784 586.593 797.55 585.519 795.902C583.657 797.622 576.684 801.052 572.566 799.26C569.25 797.807 572.321 795.923 574.523 794.965C570.283 796.046 559.572 797.632 554.788 796.572C549.351 795.356 550.819 794.398 550.819 794.398L427.977 796.19C427.977 796.19 435.575 799.981 428.208 800.084C420.841 800.187 421.331 797.189 421.331 797.189C421.331 797.189 418.422 802.411 414.943 800.629C411.463 798.848 415.31 796.376 415.31 796.376L379.971 796.901L341.37 797.457C341.37 797.457 318.754 798.075 307.676 793.461L285.44 793.78C285.44 793.78 288.458 800.454 285.223 800.64C282.844 800.784 278.835 797.55 277.775 795.902C275.899 797.622 268.94 801.052 264.808 799.26C261.492 797.807 264.577 795.923 266.765 794.965C262.525 796.046 251.814 797.632 247.044 796.572C241.607 795.356 243.061 794.398 243.061 794.398L120.233 796.19C120.233 796.19 127.817 799.981 120.464 800.084C113.111 800.187 113.586 797.189 113.586 797.189C113.586 797.189 110.664 802.411 107.185 800.629C103.705 798.848 107.565 796.376 107.565 796.376L72.2266 796.901L33.626 797.457C26.8847 797.58 5.69867 796.19 0.000183105 796.19C6.9057 780.321 12.9515 771.805 24.8668 757.463ZM673.335 791.36C670.767 789.3 670.046 786.581 672.465 782.936C668.764 784.459 664.847 785.661 660.79 786.52C666.023 787.931 670.889 789.723 673.335 791.36Z" fill="#405A01"/>
<path d="M338.635 513.992C344.679 506.612 349.334 480.131 349.405 478.008C349.507 474.772 354.07 471.393 357.419 468.821C360.767 466.248 368.831 463.329 372.854 463.329C376.876 463.329 378.223 467.351 395.312 472.383C412.401 477.416 414.769 471.046 414.769 471.046C414.432 454.611 423.487 445.525 432.879 441.86C442.27 438.196 448.314 446.893 453.346 455.611C458.379 464.329 461.727 464.339 494.272 467.351C526.816 470.362 571.089 463.329 575.111 463.329C579.133 463.329 588.535 469.372 600.949 474.068C613.362 478.764 613.362 498.221 609.33 521.22C605.297 544.219 584.176 546.19 553.98 553.233C523.784 560.277 504.674 560.277 487.565 558.94L485.993 558.817C485.993 558.817 472.967 564.636 450.825 573.191C428.683 581.745 412.523 558.613 405.479 553.07C398.436 547.527 398.18 543.015 396.925 534.46C396.169 529.356 393.525 527.314 391.535 526.518C391.355 526.453 391.163 526.432 390.973 526.457C378.938 530.704 382.582 522.374 378.223 521.23C373.864 520.087 364.473 522.047 362.451 521.23C360.43 520.414 351.722 527.08 345.015 526.406C338.309 525.732 332.602 521.373 338.635 513.992Z" fill="#EBE5D8"/>
<path d="M360.032 471.965C359.897 471.849 359.79 471.703 359.72 471.539C359.651 471.374 359.62 471.196 359.631 471.018C359.642 470.84 359.694 470.667 359.783 470.512C359.872 470.358 359.996 470.226 360.145 470.127C363.003 468.218 369.067 462.89 364.575 454.366C358.838 443.473 349.548 443.984 350.62 443.392C351.692 442.8 365.708 439.564 371.721 451.558C376.325 460.695 371.098 469.209 368.658 471.475C366.443 473.016 363.861 474.537 360.778 472.618L360.032 471.965Z" fill="#655F51"/>
<path d="M449.048 608.45C446.925 608.123 444.861 607.487 442.923 606.562C437.89 604.214 423.803 596.833 427.161 591.8C430.52 586.768 451.365 565.065 458.021 561.277C464.677 557.49 465.361 547.517 465.361 547.517L425.14 545.169C425.14 545.169 431.183 559.256 425.14 568.985C419.097 578.713 412.063 594.506 415.085 597.17C418.107 599.834 433.531 611.931 436.89 615.28C440.248 618.628 446.945 617.627 446.945 617.627" fill="#EBE5D8"/>
<path d="M529.849 539.493C529.849 539.493 548.305 534.838 554.349 559.634C560.392 584.43 558.371 602.223 550.663 609.604C542.956 616.984 529.859 635.768 529.859 635.768C529.859 635.768 522.478 639.79 521.478 644.149C521.478 644.149 531.543 646.191 536.903 644.149C536.903 644.149 575.48 592.495 576.154 590.484C576.827 588.473 572.468 559.614 580.85 554.254C589.231 548.895 605.788 540.136 608.341 525.508C610.893 510.879 529.849 539.493 529.849 539.493Z" fill="#EBE5D8"/>
<path d="M631.829 574.038C631.829 574.038 627.47 570.353 622.101 557.603C616.731 544.852 626.123 514.329 624.448 505.275C622.774 496.22 606.002 483.47 606.002 483.47V490.503C606.002 490.503 619.957 500.487 620.457 507.531C620.957 514.574 606.584 554.999 631.829 574.038Z" fill="#EBE5D8"/>
<path d="M355.662 507.388C355.662 507.388 377.539 491.596 392.412 471.526" stroke="#BF9779" stroke-width="2.04167" stroke-miterlimit="10" stroke-linecap="round"/>
<path d="M338.492 524.16C338.492 524.16 340.534 524.058 341.003 522.874C341.361 521.853 340.605 513.829 339.258 515.728C336.379 519.709 336.195 518.658 336.195 518.658C335.953 519.7 336.045 520.792 336.457 521.779C336.869 522.767 337.581 523.599 338.492 524.16Z" fill="#191919"/>
<path d="M446.312 553.244C446.312 553.244 446.649 588.136 446.312 593.832C445.975 599.528 446.976 625.366 443.25 629.724C439.524 634.083 436.543 634.757 433.858 642.475C433.858 642.475 441.198 642.812 446.414 642.475C446.414 642.475 452.305 637.442 452.641 632.746C452.978 628.05 452.641 613.626 454.989 606.919C457.337 600.212 459.062 596.2 459.736 594.159C460.41 592.117 465.402 550.263 465.402 550.263L446.312 553.244Z" fill="#EBE5D8"/>
<path d="M578.154 533.45C578.154 533.45 587.249 588.136 586.912 593.832C586.575 599.528 587.586 625.365 583.85 629.724C580.114 634.083 577.133 634.757 574.458 642.475C574.458 642.475 581.798 642.811 587.014 642.475C587.014 642.475 592.905 637.442 593.241 632.746C593.578 628.05 593.241 613.626 595.589 606.919C597.937 600.212 599.663 596.2 600.336 594.159C601.01 592.117 610.545 513.696 610.545 513.696L578.154 533.45Z" fill="#EBE5D8"/>
<path d="M381.735 491.851C381.735 491.851 383.235 501.416 381.735 503.927C380.234 506.438 361.053 521.343 361.053 521.343" stroke="#655F51" stroke-width="0.510417" stroke-miterlimit="10"/>
<path d="M624.958 565.228C624.958 565.228 621.467 573.14 628.246 584.022C635.024 594.904 635.667 601.161 635.667 601.161L634.901 587.217C634.901 587.217 636.565 592.842 637.331 595.271C637.331 595.271 641.169 584.787 635.157 575.191C629.144 565.596 624.958 565.228 624.958 565.228Z" fill="#655F51"/>
<path d="M373.568 479.141C373.568 479.141 393.617 497.935 390.993 498.537C388.37 499.14 378.743 493.433 377.539 491.585C376.334 489.738 373.568 479.141 373.568 479.141Z" fill="#D49985"/>
<path d="M391.137 497.598C390.657 493.862 374.242 468.504 374.242 468.504L374.058 479.601L391.137 497.598Z" fill="#EBE5D8"/>
<path d="M374.242 468.504C374.242 468.504 390.657 493.862 391.137 497.598" stroke="#655F51" stroke-width="0.510417" stroke-linecap="round" stroke-linejoin="round"/>
<path d="M552.419 553.611C552.419 553.611 566.027 550.181 583.105 545.159" stroke="#655F51" stroke-width="0.510417" stroke-linecap="round" stroke-linejoin="round"/>
<path d="M425.181 569.005C424.839 563.729 425.182 558.431 426.202 553.244C427.886 545.628 422.456 534.348 422.456 525.998" stroke="#655F51" stroke-width="0.510417" stroke-linecap="round" stroke-linejoin="round"/>
<path d="M461.696 569.414C453.468 572.67 445.577 575.345 442.443 575.038C442.443 575.038 453.611 564.177 455.837 562.788C458.062 561.4 463.728 559.052 465.402 550.273" stroke="#655F51" stroke-width="0.510417" stroke-linecap="round" stroke-linejoin="round"/>
<path d="M441.311 631.848C445.149 635.839 452.325 634.522 452.325 634.522C450.978 638.606 446.466 642.475 446.466 642.475C441.249 642.811 433.91 642.475 433.91 642.475C436.104 636.196 438.503 634.584 441.311 631.848Z" fill="#655F51"/>
<path d="M529.848 635.768C533.958 636.954 538.274 637.247 542.506 636.625L536.892 644.149C531.522 646.19 521.467 644.149 521.467 644.149C522.467 639.79 529.848 635.768 529.848 635.768Z" fill="#655F51"/>
<path d="M582.512 631.245C588.861 633.695 593.343 631.245 593.363 631.245C593.363 631.807 593.363 632.327 593.292 632.746C592.955 637.442 587.065 642.475 587.065 642.475C581.848 642.811 574.508 642.475 574.508 642.475C576.846 635.747 579.439 634.379 582.512 631.245Z" fill="#655F51"/>
<path d="M446.17 607.817C447.839 608.383 449.595 608.646 451.356 608.593C461.085 624.028 461.565 625.764 461.565 625.764C453.5 626.049 447.742 619.955 447.161 618.138L447.018 617.648C447.018 617.648 448.61 611.257 446.17 607.817Z" fill="#655F51"/>
<path d="M341.35 509.317C341.35 509.317 349.302 504.693 355.641 507.378C357.795 508.296 361.981 514.942 361.031 521.343" stroke="#BF9779" stroke-width="2.04167" stroke-miterlimit="10" stroke-linecap="round"/>
<path d="M355.53 485.716C355.182 486.941 354.274 487.757 353.488 487.522C352.702 487.288 352.365 486.124 352.712 484.899C353.059 483.674 353.957 482.857 354.754 483.092C355.55 483.327 355.877 484.491 355.53 485.716Z" fill="#191919"/>
<path d="M669.7 544.553C681.594 544.553 693.221 548.08 703.111 554.688C713 561.296 720.708 570.688 725.26 581.677C729.812 592.665 731.003 604.757 728.682 616.422C726.362 628.088 720.634 638.803 712.224 647.214C703.814 655.624 693.098 661.352 681.433 663.672C669.767 665.992 657.676 664.801 646.687 660.25C635.698 655.698 626.306 647.99 619.698 638.101C613.09 628.211 609.563 616.584 609.563 604.69C609.562 596.792 611.116 588.972 614.138 581.675C617.16 574.378 621.589 567.748 627.174 562.164C632.758 556.579 639.389 552.15 646.685 549.128C653.982 546.106 661.803 544.552 669.7 544.553ZM669.7 644.37C677.549 644.372 685.221 642.047 691.748 637.688C698.275 633.329 703.362 627.132 706.367 619.882C709.372 612.632 710.159 604.653 708.629 596.955C707.099 589.257 703.321 582.186 697.772 576.636C692.223 571.086 685.153 567.305 677.456 565.774C669.758 564.242 661.779 565.027 654.528 568.03C647.277 571.033 641.079 576.119 636.719 582.644C632.358 589.17 630.031 596.842 630.031 604.69C630.031 615.212 634.21 625.303 641.649 632.744C649.088 640.186 659.178 644.367 669.7 644.37Z" fill="#422F2A"/>
<path d="M667.2 548.861H672.202V660.509H667.2V548.861Z" fill="#422F2A"/>
<path d="M613.871 607.191V602.189H725.519V607.191H613.871Z" fill="#422F2A"/>
<path d="M628.465 566.983L632.003 563.446L710.95 642.393L707.413 645.93L628.465 566.983Z" fill="#422F2A"/>
<path d="M631.992 645.935L628.455 642.398L707.403 563.45L710.94 566.987L631.992 645.935Z" fill="#422F2A"/>
<path d="M617.174 585.572L619.095 580.953L722.185 623.823L720.264 628.442L617.174 585.572Z" fill="#422F2A"/>
<path d="M650.582 657.217L645.963 655.296L688.833 552.206L693.452 554.127L650.582 657.217Z" fill="#422F2A"/>
<path d="M619.119 628.428L617.198 623.809L720.288 580.939L722.209 585.558L619.119 628.428Z" fill="#422F2A"/>
<path d="M645.963 554.109L650.582 552.188L693.452 655.279L688.833 657.199L645.963 554.109Z" fill="#422F2A"/>
<path d="M659.535 614.855C653.922 609.242 653.922 600.141 659.535 594.528C665.149 588.915 674.249 588.915 679.862 594.528C685.476 600.141 685.476 609.242 679.862 614.855C674.249 620.468 665.149 620.468 659.535 614.855Z" fill="#422F2A"/>
<path d="M669.7 611.775C665.788 611.775 662.616 608.603 662.616 604.69C662.616 600.778 665.788 597.606 669.7 597.606C673.613 597.606 676.785 600.778 676.785 604.69C676.785 608.603 673.613 611.775 669.7 611.775Z" fill="#422F2A"/>
<path d="M669.7 555.108C679.507 555.108 689.093 558.016 697.247 563.464C705.4 568.913 711.755 576.656 715.508 585.716C719.261 594.776 720.243 604.745 718.33 614.363C716.416 623.981 711.694 632.816 704.76 639.75C697.826 646.684 688.991 651.406 679.373 653.319C669.755 655.233 659.786 654.251 650.726 650.498C641.666 646.745 633.923 640.39 628.475 632.236C623.026 624.083 620.119 614.497 620.119 604.69C620.119 591.54 625.342 578.929 634.641 569.631C643.939 560.332 656.551 555.108 669.7 555.108ZM669.7 644.37C677.549 644.372 685.221 642.047 691.748 637.688C698.275 633.329 703.362 627.132 706.367 619.882C709.372 612.632 710.159 604.653 708.629 596.955C707.099 589.258 703.321 582.186 697.772 576.636C692.223 571.086 685.153 567.306 677.456 565.774C669.758 564.242 661.779 565.027 654.528 568.03C647.277 571.033 641.079 576.119 636.719 582.644C632.358 589.17 630.031 596.842 630.031 604.69C630.031 615.212 634.21 625.303 641.649 632.745C649.088 640.186 659.178 644.367 669.7 644.37Z" fill="#422F2A"/>
<path d="M615.453 490.647L841.101 545.154L821.309 627.087L595.662 572.581L615.453 490.647Z" fill="#422F2A"/>
<path d="M602.017 546.26L827.665 600.767L825.361 610.303L599.714 555.796L602.017 546.26Z" fill="#855C54"/>
<path d="M639.667 412.263C641.004 415.703 642.913 418.174 643.914 417.786C644.914 417.398 644.638 414.284 643.291 410.834C641.943 407.384 640.045 404.923 639.044 405.311C638.044 405.699 638.319 408.813 639.667 412.263Z" fill="#E3AA24"/>
<path d="M705.776 424.094C707.123 427.535 709.032 430.005 710.033 429.617C711.033 429.229 710.758 426.116 709.41 422.665C708.063 419.215 706.164 416.755 705.153 417.143C704.143 417.531 704.428 420.644 705.776 424.094Z" fill="#E3AA24"/>
<path d="M713.187 428.566C711.298 431.751 710.523 434.772 711.452 435.324C712.381 435.875 714.657 433.741 716.556 430.556C718.455 427.371 719.22 424.36 718.291 423.809C717.362 423.257 715.076 425.391 713.187 428.566Z" fill="#E3AA24"/>
<path d="M591.29 433.129C594.087 429.127 604.347 428.709 604.347 428.709C618.557 411.497 629.143 422.584 629.143 422.584C642.036 414.591 640.985 428.015 640.985 428.015C651.458 413.437 669.884 430.955 669.884 430.955C691.128 415.397 714.719 440.05 714.719 440.05C716.935 425.758 731.379 433.16 731.379 433.16C737.984 419.593 753.256 431.118 753.256 431.118C783.013 401.32 799.653 425.82 799.653 425.82C806.707 420.307 812.331 424.676 815.986 429.74C815.986 429.74 855.492 424.778 848.816 449.278C848.816 449.278 870.795 455.403 857.718 466.275C857.718 466.275 894.713 481.425 877.185 500.126C873.166 504.531 868.456 508.251 863.24 511.141C876.307 512.989 888.006 518.083 876.348 528.25C868.324 535.263 860.413 538.265 853.89 539.03C860.668 545.227 865.507 553.24 857.687 553.465C843.783 553.873 841.058 545.145 841.058 545.145L802.205 535.764C802.205 535.764 801.878 545.625 799.469 545.247C797.693 544.982 796.018 539.663 795.855 537.193C793.813 539.234 787.505 542.634 785.198 539.316C783.33 536.652 786.28 534.63 788.26 533.722C784.769 534.396 776.408 534.498 773.346 532.089C769.824 529.302 771.304 528.281 771.304 528.281L681.593 506.608C681.593 506.608 685.677 513.356 680.297 512.06C674.917 510.763 676.397 506.69 676.397 506.69C676.397 506.69 672.314 513.356 670.466 510.212C668.618 507.068 672.345 504.373 672.345 504.373L646.528 498.176L618.342 491.367C618.342 491.367 579.653 482.997 597.977 461.304C598.548 460.623 599.11 459.99 599.661 459.405C590.29 453.893 584.216 443.256 591.29 433.129Z" fill="#E3AA24"/>
<path d="M802.226 535.753C802.226 535.753 841.548 471.073 815.976 429.781" stroke="#655F51" stroke-width="0.510417" stroke-miterlimit="10"/>
<path d="M731.378 433.159C731.378 433.159 773.712 476.269 764.821 526.882" stroke="#655F51" stroke-width="0.510417" stroke-miterlimit="10"/>
<path d="M669.884 430.955C669.884 430.955 671.752 479.424 646.527 498.125" stroke="#655F51" stroke-width="0.510417" stroke-miterlimit="10"/>
<path d="M684.074 549.514C695.97 549.512 707.6 553.038 717.493 559.646C727.385 566.254 735.096 575.647 739.65 586.637C744.204 597.628 745.397 609.722 743.077 621.39C740.758 633.058 735.03 643.776 726.618 652.189C718.207 660.602 707.49 666.331 695.822 668.653C684.154 670.974 672.06 669.784 661.069 665.232C650.078 660.68 640.684 652.97 634.074 643.079C627.464 633.188 623.937 621.558 623.937 609.662C623.935 601.764 625.49 593.942 628.511 586.645C631.533 579.348 635.962 572.717 641.547 567.132C647.131 561.546 653.761 557.116 661.058 554.093C668.355 551.07 676.176 549.514 684.074 549.514ZM684.074 649.331C691.923 649.333 699.596 647.008 706.123 642.648C712.65 638.289 717.737 632.092 720.742 624.841C723.746 617.59 724.533 609.611 723.002 601.913C721.471 594.215 717.692 587.144 712.142 581.594C706.592 576.044 699.521 572.264 691.823 570.734C684.125 569.203 676.146 569.99 668.895 572.994C661.644 575.999 655.447 581.086 651.087 587.613C646.728 594.14 644.402 601.813 644.404 609.662C644.404 620.183 648.584 630.273 656.023 637.712C663.463 645.152 673.553 649.331 684.074 649.331Z" fill="#855C54"/>
<path d="M681.574 553.832H686.576V665.481H681.574V553.832Z" fill="#855C54"/>
<path d="M628.256 612.163V607.161H739.904V612.163H628.256Z" fill="#855C54"/>
<path d="M642.83 571.952L646.367 568.415L725.315 647.362L721.778 650.899L642.83 571.952Z" fill="#855C54"/>
<path d="M646.374 650.896L642.837 647.359L721.785 568.412L725.322 571.949L646.374 650.896Z" fill="#855C54"/>
<path d="M631.561 590.542L633.482 585.924L736.572 628.794L734.651 633.412L631.561 590.542Z" fill="#855C54"/>
<path d="M664.955 662.165L660.337 660.244L703.207 557.154L707.825 559.075L664.955 662.165Z" fill="#855C54"/>
<path d="M633.494 633.399L631.574 628.78L734.664 585.91L736.585 590.529L633.494 633.399Z" fill="#855C54"/>
<path d="M660.337 559.071L664.956 557.15L707.826 660.24L703.207 662.161L660.337 559.071Z" fill="#855C54"/>
<path d="M670.089 613.035C668.236 605.317 672.991 597.557 680.71 595.704C688.429 593.851 696.189 598.606 698.042 606.325C699.895 614.043 695.14 621.803 687.421 623.656C679.702 625.509 671.943 620.754 670.089 613.035Z" fill="#422F2A"/>
<path d="M684.074 616.736C685.476 616.736 686.846 616.32 688.011 615.541C689.176 614.763 690.084 613.655 690.62 612.36C691.156 611.065 691.296 609.64 691.022 608.266C690.748 606.891 690.072 605.629 689.08 604.638C688.088 603.648 686.825 602.974 685.45 602.702C684.075 602.43 682.65 602.571 681.356 603.109C680.062 603.647 678.956 604.557 678.179 605.723C677.401 606.889 676.988 608.26 676.99 609.662C676.992 611.539 677.74 613.338 679.068 614.665C680.396 615.991 682.197 616.736 684.074 616.736Z" fill="#855C54"/>
<path d="M684.075 560.08C693.882 560.08 703.468 562.988 711.621 568.436C719.775 573.884 726.13 581.628 729.883 590.688C733.636 599.747 734.618 609.717 732.704 619.335C730.791 628.953 726.069 637.787 719.135 644.721C712.201 651.656 703.366 656.378 693.748 658.291C684.13 660.204 674.161 659.222 665.101 655.469C656.041 651.717 648.298 645.362 642.849 637.208C637.401 629.054 634.493 619.468 634.493 609.662C634.492 603.15 635.774 596.702 638.265 590.686C640.756 584.67 644.408 579.203 649.013 574.599C653.617 569.995 659.083 566.343 665.099 563.851C671.116 561.36 677.564 560.079 684.075 560.08ZM684.075 649.331C691.924 649.333 699.597 647.008 706.124 642.648C712.651 638.289 717.738 632.092 720.743 624.841C723.747 617.59 724.534 609.611 723.003 601.913C721.473 594.215 717.693 587.144 712.143 581.594C706.593 576.044 699.522 572.264 691.824 570.734C684.126 569.203 676.147 569.99 668.896 572.994C661.645 575.999 655.448 581.086 651.089 587.613C646.729 594.14 644.404 601.813 644.406 609.662C644.406 614.871 645.432 620.03 647.425 624.843C649.419 629.656 652.341 634.029 656.025 637.712C659.708 641.396 664.081 644.318 668.894 646.312C673.707 648.305 678.866 649.331 684.075 649.331Z" fill="#422F2A"/>
<path d="M609.081 657.217C609.081 657.217 615.614 661.648 614.808 663.128C614.001 664.608 608.152 676.644 604.906 678.512C601.659 680.38 590.614 679.88 589.471 678.88C588.327 677.879 590.287 676.613 594.503 675.684C599.362 674.612 598.444 669.049 598.444 669.049L609.081 657.217Z" fill="#C98C5F"/>
<path d="M468.89 522.529C468.89 522.529 472.626 529.613 470.666 531.879C470.666 531.879 495.748 536.882 507.416 529.899C507.416 529.899 508.437 519.201 497.494 516.302L468.89 522.529Z" fill="#C98C5F"/>
<path d="M516.49 483.002C516.49 483.002 497.094 514.28 494.124 517.292C494.124 517.292 500.769 531.287 507.394 529.899L526.127 504.603C526.127 504.603 527.801 488.78 516.49 483.002Z" fill="#C98C5F"/>
<path d="M462.551 437.452C463.276 442.24 465.42 465.362 465.379 470.772C465.338 476.183 464.256 620.192 464.695 625.102C465.134 630.012 466.287 681.248 466.287 681.248C466.287 681.248 467.808 682.371 468.635 681.248C468.635 681.248 467.237 628.838 466.91 623.938C466.583 619.038 467.706 594.906 467.4 588.873C467.094 582.84 466.104 575.102 466.287 567.435C466.471 559.769 467.91 497.743 467.502 485.227C467.094 472.712 464.246 425.345 463.97 419.618C463.694 413.892 461.836 432.644 462.551 437.452Z" fill="#E3AA24"/>
<path d="M464.695 517.343C464.319 517.243 463.925 517.234 463.545 517.317C463.165 517.4 462.811 517.572 462.511 517.82C462.212 518.068 461.975 518.383 461.823 518.741C461.67 519.098 461.604 519.487 461.632 519.875C461.989 524.785 462.867 533.401 464.766 534.034C467.42 534.922 471.412 534.473 471.861 532.482C472.31 530.491 471.197 520.589 470.973 519.66C470.84 519.119 467.4 518.098 464.695 517.343Z" fill="#C98C5F"/>
<path d="M464.541 521.681L470.666 522.529" stroke="#191919" stroke-width="0.510417" stroke-miterlimit="10" stroke-linecap="round"/>
<path d="M465.297 525.867L471.729 526.418" stroke="#191919" stroke-width="0.510417" stroke-miterlimit="10" stroke-linecap="round"/>
<path d="M466.042 530.001H471.729" stroke="#191919" stroke-width="0.510417" stroke-miterlimit="10" stroke-linecap="round"/>
<path d="M470.36 520.201C470.36 520.201 467.379 523.723 468.594 525.305C469.809 526.888 470.401 527.561 471.994 525.652C473.586 523.744 476.077 520.967 475.546 520.079C475.015 519.191 473.239 516.261 470.36 520.201Z" fill="#C98C5F"/>
<path d="M572.076 583.534C572.076 583.534 575.812 613.424 579.956 617.16C584.101 620.896 611.51 658.249 611.51 658.249C611.51 658.249 601.547 673.561 596.565 672.785L552.149 621.305L535.958 583.534C535.958 583.534 516.859 621.754 516.45 628.175C516.042 634.596 508.978 675.684 508.978 675.684L484.478 671.121C484.478 671.121 492.369 606.809 493.614 605.114C494.86 603.42 511.877 568.589 511.877 568.589L572.076 583.534Z" fill="#422F2A"/>
<path d="M530.773 468.649C530.773 468.649 540.736 473.008 544.156 481.409C547.576 489.811 579.957 586.025 579.957 586.025C579.957 586.025 556.294 596.815 549.24 595.988L542.186 576.469L538.45 596.029C538.45 596.029 512.296 596.029 501.506 591.833C501.506 591.833 499.015 522.927 509.805 482.604C509.805 482.655 516.859 463.351 530.773 468.649Z" fill="#EF2146"/>
<path d="M518.033 434.91C514.248 434.308 510.369 434.893 506.93 436.586C503.492 438.279 500.662 440.996 498.831 444.363C498.066 445.731 497.535 446.681 497.811 447.844C498.586 451.121 494.493 468.261 497.811 469.129C501.128 469.996 517.676 470.527 523.801 461.187C528.742 453.663 532.437 437.391 518.033 434.91Z" fill="#C98C5F"/>
<path d="M509.039 465.464L513.347 479.235C513.347 479.235 524.096 474.815 527.414 468.486L521.799 456.389L509.039 465.464Z" fill="#C98C5F"/>
<path d="M510.795 437.32C510.795 437.32 511.387 442.567 514.347 443.761L513.969 454.745C513.969 454.745 522.452 453.469 523.8 461.187C523.8 461.187 531.313 453.602 530.037 443.251C530.037 443.251 522.095 435.87 510.795 437.32Z" fill="#542E1C"/>
<path d="M522.708 453.531C522.736 454.443 522.496 455.343 522.019 456.12C521.541 456.898 520.847 457.519 520.021 457.907C519.195 458.294 518.273 458.432 517.37 458.302C516.467 458.172 515.621 457.781 514.938 457.177C514.254 456.573 513.762 455.782 513.523 454.901C513.283 454.021 513.307 453.089 513.59 452.222C513.874 451.355 514.405 450.589 515.118 450.02C515.831 449.451 516.695 449.103 517.604 449.019C518.879 448.94 520.133 449.372 521.09 450.218C522.047 451.064 522.629 452.256 522.708 453.531Z" fill="#C98C5F"/>
<path d="M519.197 451.744C518.607 451.968 518.085 452.341 517.681 452.825C517.277 453.31 517.004 453.89 516.889 454.51C516.889 454.51 519.768 454.327 518.839 455.858" stroke="#191919" stroke-width="0.510417" stroke-miterlimit="10" stroke-linecap="round"/>
<path d="M497.872 449.754C497.609 451.072 497.046 452.311 496.228 453.378C494.829 455.256 494.799 457.185 498.198 458.257L497.872 449.754Z" fill="#C98C5F"/>
<path d="M500.698 445.742C500.61 445.719 500.529 445.675 500.462 445.613C500.395 445.551 500.345 445.473 500.317 445.386C500.288 445.3 500.282 445.207 500.299 445.118C500.316 445.028 500.355 444.944 500.412 444.874C500.596 444.602 500.852 444.388 501.152 444.256C501.452 444.125 501.783 444.08 502.107 444.129C503.679 444.343 503.975 445.395 503.659 445.864C503.342 446.334 501.688 445.925 500.698 445.742Z" fill="#542E1C"/>
<path d="M502.066 451.877C501.883 452.55 501.382 453 500.954 452.898C500.525 452.795 500.331 452.122 500.525 451.448C500.719 450.774 501.209 450.335 501.638 450.427C502.066 450.519 502.26 451.203 502.066 451.877Z" fill="#191919"/>
<path d="M498.433 459.584C499.264 460.026 500.22 460.174 501.146 460.006C502.072 459.837 502.914 459.361 503.537 458.655" fill="#191919"/>
<path d="M527.415 456.093C527.415 456.093 516.186 443.741 499.944 442.597L500.965 436.207C500.965 431.634 507.886 432.563 507.886 432.563C507.886 432.563 526.21 428.398 530.753 442.771C530.763 442.771 536.97 449.59 527.415 456.093Z" fill="#EBE5D8"/>
<path d="M530.763 442.771C530.763 442.771 521.157 434.665 500.975 436.207C500.975 436.207 522.616 437.422 528.19 454.49" stroke="#655F51" stroke-width="0.510417" stroke-linecap="round" stroke-linejoin="round"/>
<path d="M507.896 432.563C507.896 432.563 511.622 434.676 512.336 436.36" stroke="#655F51" stroke-width="0.510417" stroke-linecap="round" stroke-linejoin="round"/>
<path d="M526.25 506.502C526.25 506.502 540.838 496.671 546.249 498.896L551.914 531.808C551.914 531.808 544.34 548.907 537.745 539.975L526.25 506.502Z" fill="#C98C5F"/>
<path d="M526.486 566.771C526.486 566.771 532.172 568.813 533.336 569.956C533.336 569.956 552.619 542.884 551.894 531.808C551.894 531.808 545.381 519.344 536.418 531.675L526.486 566.771Z" fill="#C98C5F"/>
<path d="M505.752 675.082C505.752 675.082 506.324 677.828 504.843 678.635C503.363 679.441 488.224 677.767 484.478 677.614C480.731 677.461 469.87 677.267 469.472 675.827C469.073 674.388 468.032 674.541 477.393 673.581C482.354 673.071 484.478 671.152 484.478 671.152L505.752 675.082Z" fill="#C98C5F"/>
<path d="M519.247 577.695C519.247 577.695 518.369 585.545 517.9 586.882C517.43 588.219 520.013 587.586 520.728 586.28C521.442 584.973 521.891 579.348 522.004 579.348C522.116 579.348 519.247 577.695 519.247 577.695Z" fill="#C98C5F"/>
<path d="M520.921 575.428C520.921 575.428 516.113 581.696 515.03 582.574C513.948 583.452 516.48 584.279 517.766 583.523C519.052 582.768 522.309 578.225 522.421 578.327C522.534 578.429 520.921 575.428 520.921 575.428Z" fill="#C98C5F"/>
<path d="M527.271 563.862C527.271 563.862 521.034 573.581 519.258 577.133C518.124 579.43 520.391 584.279 520.973 586.841C521.554 589.403 524.484 587.209 524.137 584.503C523.925 582.982 523.826 581.446 523.841 579.91L526.332 576.541C527.72 576.163 526.332 576.735 530.303 575.183C531.946 574.53 535.683 570.702 535.06 567.68L527.271 563.862Z" fill="#C98C5F"/>
<path d="M522.249 574.305C521.303 575.824 520.45 577.399 519.697 579.022C519.105 580.553 519.799 583.738 519.799 583.738" stroke="#191919" stroke-width="0.510417" stroke-miterlimit="10" stroke-linecap="round"/>
<path d="M614.9 662.117C614.9 662.117 604.079 677.593 602.487 677.869C600.894 678.145 601.701 675.102 596.637 675.307C591.574 675.511 588.083 677.522 588.471 679.053C588.858 680.584 602.864 679.584 603.844 679.768C604.824 679.951 616.002 663.547 615.941 663.128C615.88 662.71 614.9 662.117 614.9 662.117Z" fill="#422F2A"/>
<path d="M505.854 676.756C505.854 676.756 480.466 674.97 479.629 674.98C478.792 674.99 479.18 673.04 477.026 673.173C474.872 673.306 468.461 674.194 468.635 674.98C469.001 675.841 469.639 676.558 470.452 677.022C470.697 677.022 503.802 679.962 505.395 678.839C506.252 678.236 505.854 676.756 505.854 676.756Z" fill="#422F2A"/>
<defs>
<linearGradient id="paint0_linear_32_227" x1="620.417" y1="-1.95149e-09" x2="620.299" y2="1127" gradientUnits="userSpaceOnUse">
<stop stop-color="#E3BD56"/>
<stop offset="1" stop-color="#FFFCDB" stop-opacity="0"/>
</linearGradient>
</defs>
</svg>
